<?xml version="1.0" encoding="UTF-8"?>
<svg xmlns="http://www.w3.org/2000/svg" xmlns:xlink="http://www.w3.org/1999/xlink" viewBox="0 0 68.93 42.46">
  <defs>
    <radialGradient id="radial-gradient" cx="-576.23" cy="29.55" fx="-576.23" fy="29.55" r=".07" gradientTransform="translate(91595.19 4702.08) scale(158.9 -158.9)" gradientUnits="userSpaceOnUse">
      <stop offset="0" stop-color="#e83f38"/>
      <stop offset=".21" stop-color="#e52729"/>
      <stop offset="1" stop-color="#e20e18"/>
    </radialGradient>
    <linearGradient id="linear-gradient" x1="33.1" y1=".05" x2="33.1" y2="9.59" gradientUnits="userSpaceOnUse">
      <stop offset=".1" stop-color="#b11a1a"/>
      <stop offset=".9" stop-color="#f7b4a5"/>
      <stop offset="1" stop-color="#f7b4a5" stop-opacity=".4"/>
    </linearGradient>
    <radialGradient id="New_Gradient_Swatch" data-name="New Gradient Swatch" cx="-575.85" cy="29.51" fx="-575.85" fy="29.51" r=".05" gradientTransform="translate(81153.84 4163.32) scale(140.87 -140.87)" gradientUnits="userSpaceOnUse">
      <stop offset="0" stop-color="#f0f5f9"/>
      <stop offset=".43" stop-color="#e0e9ef"/>
      <stop offset=".85" stop-color="#89a4b4"/>
    </radialGradient>
    <radialGradient id="radial-gradient-2" cx="33.79" cy="10.2" fx="33.79" fy="10.2" r="7.37" gradientTransform="translate(-.68 13.31) rotate(-17.62) scale(1 .73)" gradientUnits="userSpaceOnUse">
      <stop offset=".17" stop-color="#678a9b"/>
      <stop offset="1" stop-color="#355f72"/>
    </radialGradient>
  </defs>
  <g style="isolation: isolate;">
    <g id="Camada_2" data-name="Camada 2">
      <g id="Camada_1-2" data-name="Camada 1">
        <g>
          <g>
            <g>
              <path id="path9" d="M34.62,11.52c3.12-.84,4.98-4.05,4.14-7.17-.84-3.12-4.05-4.98-7.17-4.14-3.12.84-4.98,4.05-4.14,7.17.84,3.12,4.05,4.98,7.17,4.14h0Z" style="fill: url(#radial-gradient);"/>
              <path d="M31.59.25c-2.24.6-3.83,2.42-4.24,4.56.03.14.06.29.1.43.84,3.13,4.05,4.98,7.18,4.14,2.24-.6,3.83-2.42,4.24-4.56-.03-.14-.06-.29-.1-.43-.84-3.13-4.05-4.98-7.18-4.14Z" style="fill: url(#linear-gradient); mix-blend-mode: hard-light; opacity: .5;"/>
              <path id="path15" d="M35.86,3.86c-.13-.14-.26-.27-.39-.41-.13-.13-.27-.27-.41-.39-.27.24-.55.5-.83.77.15.14.29.28.44.43.15.15.29.29.43.44.27-.29.53-.56.77-.83ZM38.11,3.02c.15.26.27.53.37.8-.07.19-.15.39-.25.58-.15-.25-.32-.49-.5-.74.1-.17.2-.33.29-.49.03-.05.06-.1.08-.15ZM38.59,4.14c.14.45.22.91.25,1.38-.14-.3-.29-.6-.46-.89.08-.16.15-.33.22-.49ZM38.84,6.15c-.03.47-.11.93-.25,1.38-.07-.16-.14-.32-.22-.49.17-.3.33-.59.46-.89ZM38.48,7.86c-.1.27-.23.54-.37.8-.03-.05-.06-.1-.08-.15-.09-.16-.19-.32-.29-.49.18-.24.35-.49.5-.74.09.2.17.39.25.58ZM37.98,8.88c-.12.2-.26.39-.41.57-.07-.09-.15-.19-.23-.29-.09-.11-.18-.22-.27-.33.19-.21.36-.42.53-.64.09.14.17.28.24.41.05.09.1.18.15.27ZM37.42,9.63c-.08.09-.17.19-.26.28-.09.09-.18.18-.28.26-.1-.08-.21-.17-.32-.26-.1-.08-.2-.16-.3-.25.11-.1.22-.21.33-.32.11-.11.22-.22.32-.33.09.1.17.21.25.3.09.11.18.22.26.32h0ZM36.71,10.31c-.18.15-.38.29-.57.41-.09-.05-.18-.09-.27-.15-.13-.08-.27-.16-.41-.24.22-.17.43-.34.64-.53.11.09.22.19.33.27.1.08.2.16.29.23h0ZM35.91,10.86c-.26.15-.53.27-.8.37-.19-.07-.39-.16-.58-.25.25-.15.5-.32.74-.5.17.1.33.2.49.29.05.03.1.06.15.08ZM34.78,11.34c-.45.14-.91.22-1.38.25.3-.14.6-.29.89-.46.16.08.33.15.49.22h0ZM32.78,11.58c-.47-.03-.93-.11-1.38-.25.16-.07.32-.14.49-.22.3.17.59.33.89.46ZM31.07,11.23c-.27-.1-.54-.23-.8-.37.05-.03.1-.06.15-.08.16-.09.32-.19.49-.29.24.18.49.35.74.5-.2.09-.39.17-.58.25ZM33.26,8.72c.29.25.58.48.87.7.26-.21.51-.42.77-.65-.27-.24-.55-.5-.83-.77-.27.25-.54.5-.8.73ZM34.31,9.55c.32.24.64.46.94.65.22-.17.45-.35.66-.55-.27-.23-.56-.48-.85-.75-.25.23-.5.44-.75.64ZM31.12,10.35c.26.19.51.36.78.51.33-.16.66-.35.99-.56-.28-.19-.56-.39-.84-.61-.32.24-.63.46-.93.65h0ZM32.12,11c.32.18.65.34.97.48.32-.14.65-.3.97-.48-.32-.16-.64-.35-.97-.56-.33.21-.65.4-.97.56ZM38.73,5.84c-.14-.32-.3-.65-.48-.97-.16.32-.35.64-.56.97.21.33.4.65.56.97.18-.32.34-.65.48-.97ZM38.12,4.64c-.16-.26-.33-.52-.51-.78-.2.3-.41.61-.65.93.22.28.42.56.6.84.21-.33.4-.67.56-.99h0ZM32.23,9.56c.29.22.57.43.86.61.28-.19.57-.39.86-.61-.28-.22-.57-.45-.86-.69-.29.25-.58.48-.86.69ZM33.29,10.3c.33.21.67.4.99.56.26-.16.52-.33.78-.51-.3-.2-.61-.41-.93-.65-.28.22-.56.42-.84.6h0ZM38.12,7.03c-.16-.33-.35-.66-.56-.99-.19.28-.39.56-.6.84.24.32.46.63.65.93.19-.26.36-.51.51-.78h0ZM37.42,5.84c-.19-.28-.39-.57-.61-.86-.22.28-.45.57-.69.86.25.29.48.58.69.86.22-.29.43-.57.61-.86ZM35.25,6.81c.27.29.52.56.77.83.23-.25.45-.51.65-.77-.22-.28-.45-.57-.7-.87-.23.27-.47.54-.73.8ZM36.17,7.81c.27.3.52.58.75.85.19-.22.38-.44.55-.66-.19-.3-.41-.62-.65-.94-.2.25-.42.5-.64.75h0ZM34.23,7.84c.29.27.56.53.83.77.14-.13.27-.26.41-.39s.27-.27.39-.41c-.24-.27-.5-.55-.77-.83-.14.15-.28.29-.43.44-.15.15-.29.29-.44.43h0ZM35.23,8.76c.3.27.59.52.86.75.12-.11.23-.22.35-.33.11-.11.22-.23.33-.35-.23-.27-.48-.56-.75-.86-.13.13-.25.27-.39.4-.13.13-.26.26-.4.39h0ZM30.05,10.72c-.2-.12-.39-.26-.57-.41.09-.07.19-.15.29-.23.11-.09.22-.18.33-.27.21.19.42.36.64.53-.14.09-.28.17-.41.24-.09.05-.18.1-.27.15ZM29.3,10.17c-.09-.08-.19-.17-.28-.26-.09-.09-.18-.18-.26-.28.08-.1.17-.21.26-.32.08-.1.16-.2.25-.3.1.11.21.22.32.33.11.11.22.22.33.32-.1.09-.21.17-.3.25-.11.09-.22.18-.32.26ZM31.28,8.76c.25.23.51.45.77.65.28-.22.57-.45.87-.7-.27-.23-.54-.47-.8-.73-.29.27-.56.52-.83.77ZM32.28,7.84c.27.26.54.5.81.73.27-.23.54-.48.81-.73-.27-.25-.54-.51-.81-.78-.28.27-.55.53-.81.78ZM36.67,4.8c-.21-.26-.42-.51-.65-.77-.24.27-.5.55-.77.83.25.27.5.54.73.8.25-.29.48-.58.7-.87ZM37.46,3.67c-.17-.22-.35-.45-.55-.66-.23.27-.48.56-.75.85.23.25.44.5.64.75.24-.32.46-.64.65-.94ZM37.57,2.22c.15.18.29.38.41.57-.05.09-.09.18-.15.27-.08.13-.16.27-.24.41-.17-.21-.34-.43-.53-.64.1-.11.19-.22.27-.33.08-.1.16-.2.23-.29h0ZM36.88,1.51c.09.08.19.17.28.26.09.09.18.18.26.28-.08.1-.17.21-.26.32-.08.1-.16.2-.25.3-.1-.11-.21-.22-.32-.33-.11-.11-.22-.22-.33-.32.1-.09.21-.17.3-.25.11-.09.22-.18.32-.26h0Z" style="fill: #2b2624; mix-blend-mode: multiply; opacity: .6;"/>
              <path id="path33" d="M35.97,3.82c-.13-.14-.27-.28-.41-.42-.14-.14-.28-.27-.42-.41-.28.25-.56.52-.86.79.15.14.3.29.45.44.15.15.3.3.44.45.28-.29.54-.58.79-.86h0ZM38.28,2.95c.15.27.28.54.38.82-.07.2-.16.4-.25.6-.16-.26-.33-.51-.52-.76.11-.17.21-.34.3-.51.03-.05.06-.11.09-.16h0ZM38.78,4.11c.14.46.23.94.25,1.42-.14-.31-.3-.62-.48-.92.08-.17.16-.34.23-.5ZM39.03,6.18c-.03.48-.11.96-.25,1.42-.07-.17-.14-.33-.23-.5.18-.31.34-.61.48-.92h0ZM38.67,7.94c-.11.28-.23.56-.38.82-.03-.05-.06-.1-.09-.16-.09-.16-.19-.33-.3-.51.19-.25.36-.51.52-.76.09.2.18.4.25.6h0ZM38.14,8.99c-.13.2-.27.4-.42.59-.08-.1-.16-.2-.24-.3-.09-.11-.18-.22-.28-.34.19-.21.37-.43.54-.66.09.14.17.28.25.42.05.09.1.19.15.28h0ZM37.57,9.76c-.09.1-.17.19-.27.29-.09.09-.19.18-.29.27-.11-.08-.22-.17-.33-.27-.1-.08-.21-.17-.31-.26.12-.11.23-.22.34-.33.11-.11.22-.23.33-.34.09.11.18.21.26.31.09.11.18.22.27.33ZM36.84,10.47c-.19.15-.39.3-.59.42-.09-.05-.18-.1-.28-.15-.14-.08-.28-.16-.42-.25.22-.17.44-.35.65-.54.12.1.23.19.34.28.1.08.2.16.3.24h0ZM36.01,11.03c-.27.15-.54.28-.82.38-.2-.07-.4-.16-.6-.25.26-.16.51-.33.76-.52.17.11.34.21.51.3.05.03.11.06.16.09h0ZM34.85,11.52c-.46.14-.94.23-1.42.25.31-.14.62-.3.92-.48.17.08.34.16.5.23ZM32.78,11.78c-.48-.03-.96-.11-1.42-.25.17-.07.33-.14.5-.23.31.18.61.34.92.48ZM31.02,11.41c-.28-.11-.56-.23-.82-.38.05-.03.11-.06.16-.09.16-.09.33-.19.51-.3.25.19.5.36.76.52-.2.09-.4.18-.6.25ZM33.28,8.83c.3.26.6.5.89.72.27-.21.53-.44.79-.68-.28-.25-.56-.51-.86-.79-.28.26-.55.51-.83.75ZM34.37,9.69c.33.25.66.47.97.67.23-.18.46-.36.69-.56-.28-.24-.57-.5-.88-.77-.26.23-.51.45-.77.66ZM31.07,10.51c.26.19.53.37.8.53.34-.17.68-.36,1.02-.58-.29-.19-.58-.4-.86-.62-.33.25-.65.47-.96.67h0ZM32.11,11.18c.33.19.67.35,1,.49.33-.14.67-.31,1-.49-.33-.17-.66-.36-1-.58-.34.22-.67.41-1,.58ZM38.92,5.85c-.14-.33-.31-.67-.49-1-.17.33-.36.66-.58,1,.22.34.41.67.58,1,.19-.33.35-.67.49-1ZM38.29,4.62c-.16-.27-.34-.54-.53-.8-.2.31-.43.63-.67.96.22.29.43.58.62.86.22-.35.41-.69.58-1.02ZM32.22,9.69c.29.23.59.44.88.63.29-.19.59-.4.88-.63-.29-.22-.59-.46-.88-.71-.3.25-.59.49-.88.71ZM33.32,10.46c.35.22.69.41,1.02.58.27-.16.54-.34.8-.53-.31-.2-.63-.43-.96-.67-.29.22-.58.43-.86.62h0ZM38.29,7.09c-.17-.34-.36-.68-.58-1.02-.19.29-.4.58-.62.86.25.33.47.65.67.96.19-.26.37-.53.53-.8ZM37.58,5.85c-.19-.29-.4-.59-.63-.88-.22.29-.46.59-.71.88.25.3.49.59.71.88.23-.29.44-.59.63-.88ZM35.33,6.86c.28.29.54.58.79.86.24-.26.46-.53.67-.79-.22-.29-.46-.59-.72-.89-.24.27-.49.55-.75.83ZM36.28,7.89c.28.31.53.6.77.88.2-.22.39-.45.56-.69-.2-.31-.43-.64-.67-.97-.21.26-.43.52-.66.77ZM34.28,7.92c.3.28.58.54.86.79.14-.13.28-.27.42-.41.14-.14.27-.28.41-.42-.25-.28-.52-.56-.79-.86-.14.15-.29.3-.44.45-.15.15-.3.3-.45.44h0ZM35.31,8.87c.31.28.6.54.88.77.12-.11.24-.22.36-.34.12-.12.23-.24.34-.36-.24-.28-.5-.57-.77-.88-.13.14-.26.27-.4.41-.14.14-.27.27-.41.4h0ZM29.97,10.89c-.2-.13-.4-.27-.59-.42.1-.08.2-.16.3-.24.11-.09.22-.18.34-.28.21.19.43.37.65.54-.14.09-.28.17-.42.25-.09.05-.19.1-.28.15ZM29.2,10.32c-.1-.09-.19-.17-.29-.27-.09-.09-.18-.19-.27-.29.08-.11.17-.22.27-.33.08-.1.17-.21.26-.31.11.12.22.23.33.34.11.11.23.22.34.33-.11.09-.21.18-.31.26-.11.09-.22.18-.33.27ZM31.24,8.87c.26.24.53.46.79.68.29-.22.59-.46.89-.72-.27-.24-.55-.49-.83-.75-.29.28-.58.54-.86.79ZM32.27,7.92c.28.26.56.52.84.75.28-.24.56-.49.84-.75-.27-.26-.55-.53-.84-.81-.28.28-.56.55-.84.81ZM36.8,4.78c-.21-.27-.44-.53-.67-.79-.25.28-.52.56-.79.86.26.28.51.55.75.83.26-.3.5-.6.72-.89ZM37.61,3.62c-.18-.23-.36-.46-.56-.69-.24.28-.5.57-.77.88.23.26.45.51.66.77.25-.33.47-.66.67-.97ZM37.72,2.12c.15.19.3.39.42.59-.05.09-.1.18-.15.28-.08.14-.16.28-.25.42-.17-.22-.35-.44-.54-.65.1-.12.19-.23.28-.34.08-.1.16-.2.24-.3h0ZM37.02,1.39c.1.09.19.17.29.27.09.09.18.19.27.29-.08.11-.17.22-.27.33-.08.1-.17.21-.26.31-.11-.12-.22-.23-.33-.34-.11-.11-.23-.22-.34-.33.11-.09.21-.18.31-.26.11-.09.22-.18.33-.27Z" style="fill: url(#New_Gradient_Swatch);"/>
              <path d="M30.67,10.49c-.22-.17-.44-.35-.65-.54-.12.1-.23.19-.34.28-.1.08-.2.16-.3.24.19.15.39.3.59.42.09-.05.18-.1.28-.15.14-.08.28-.16.42-.25ZM29.84,9.79c-.27-.16-.54-.34-.78-.54-.05.06-.1.12-.15.18-.09.11-.18.22-.27.33.09.1.17.19.27.29.09.09.19.18.29.27.11-.08.22-.17.33-.27.1-.08.2-.17.31-.26ZM30.86,10.64c-.17.11-.34.21-.51.3-.05.03-.11.06-.16.09.27.15.54.28.82.38.2-.07.4-.16.6-.25-.26-.16-.51-.33-.76-.52ZM32.58,10.65c-.46-.04-.91-.12-1.35-.25-.06.04-.11.07-.16.11.26.19.53.37.8.53.23-.12.47-.25.71-.39ZM35.14,10.51c-.06-.04-.11-.07-.17-.11-.09.03-.17.05-.26.07-.36.09-.72.15-1.08.18.24.14.48.27.71.39.27-.16.54-.34.8-.53ZM35.55,10.19c-.1.04-.2.08-.3.11.03.02.06.04.08.06.07-.05.14-.11.21-.17ZM33.22,10.67c-.08,0-.15,0-.23,0-.3.19-.59.36-.89.51.33.19.67.35,1,.49.33-.14.67-.31,1-.49-.29-.15-.59-.32-.89-.51ZM31.36,11.52c.46.14.94.23,1.42.25-.31-.14-.62-.3-.92-.48-.17.08-.34.16-.5.23ZM38.05,8.35c.05.08.1.17.14.25.03.05.06.11.09.16.15-.27.28-.54.38-.82-.04-.1-.08-.2-.12-.3-.15.25-.31.49-.49.72ZM37.89,8.54c-.17.2-.36.39-.56.56.05.06.1.12.15.18.08.1.16.2.24.3.15-.19.3-.39.42-.59-.05-.09-.1-.18-.15-.28-.03-.06-.07-.12-.1-.18ZM38.68,7.38c.03.07.06.15.09.22.09-.29.15-.58.2-.88-.08.23-.18.45-.29.66ZM36.2,9.95c-.21.19-.43.37-.65.54.14.09.28.17.42.25.09.05.19.1.28.15.2-.13.4-.27.59-.42-.1-.08-.2-.16-.3-.24-.11-.09-.22-.18-.34-.28ZM35.35,10.64c-.25.19-.5.36-.76.52.2.09.4.18.6.25.28-.11.56-.23.82-.38-.05-.03-.11-.06-.16-.09-.16-.09-.33-.19-.51-.3ZM37.16,9.25c-.24.2-.5.38-.78.54.11.09.21.18.31.26.11.09.22.18.33.27.1-.09.19-.17.29-.27.09-.09.18-.19.27-.29-.08-.11-.17-.22-.27-.33-.05-.06-.1-.12-.15-.18ZM33.43,11.78c.48-.03.96-.11,1.42-.25-.17-.07-.33-.14-.5-.23-.31.18-.61.34-.92.48Z" style="fill: url(#radial-gradient-2); opacity: .8;"/>
            </g>
            <path d="M25.39,14.39h-1.33c-.1,0-.18.03-.25.1-.07.07-.1.15-.1.25s.03.18.1.25c.07.07.15.1.25.1h1.33c.1,0,.18-.03.25-.1.07-.07.1-.15.1-.25s-.03-.18-.1-.25c-.07-.07-.15-.1-.25-.1ZM33.05,15.02c.12-.05.23-.12.32-.21.09-.09.16-.19.21-.31.05-.12.08-.24.08-.38s-.03-.26-.08-.38c-.05-.12-.12-.22-.21-.31-.09-.09-.2-.16-.32-.21-.12-.05-.25-.08-.39-.08h-2.07c-.1,0-.18.03-.25.1-.07.07-.1.15-.1.25s.03.18.1.25c.07.07.15.1.25.1h2.1c.07,0,.14.03.19.08.06.05.08.12.08.19,0,.08-.03.14-.08.19-.06.05-.12.08-.19.08h-1.56c-.13,0-.24.02-.35.07-.11.05-.2.11-.28.19-.08.08-.14.18-.19.29-.05.11-.07.23-.07.35v.7c0,.1.03.18.1.25.07.07.15.1.25.1s.17-.03.25-.1c.07-.07.11-.15.11-.25v-.62c0-.07.02-.13.07-.18.04-.05.1-.09.16-.09h.03c.38,0,1.65.99,1.85,1.14.09.07.17.1.25.1.1,0,.18-.03.25-.1.07-.07.1-.15.1-.25,0-.07-.02-.13-.06-.18-.04-.05-.09-.1-.14-.14-.14-.11-.28-.22-.42-.31-.14-.1-.27-.18-.4-.27h.03c.14,0,.27-.03.39-.08ZM29.85,14.13c0-.14-.03-.27-.08-.39-.05-.12-.12-.22-.21-.31-.09-.09-.2-.16-.32-.21-.12-.05-.25-.08-.38-.08h-2.07c-.1,0-.18.03-.25.1-.07.07-.1.15-.1.25s.03.18.1.25c.07.07.15.1.25.1h2.1c.07,0,.14.03.19.08.06.06.08.12.08.19,0,.08-.03.14-.08.19-.05.05-.12.07-.19.07h-2.11c-.1,0-.18.03-.25.1-.07.07-.1.15-.1.25s.03.18.1.25c.07.07.15.1.25.1h2.1c.07,0,.14.03.19.08.06.05.08.12.08.19,0,.07-.03.14-.08.19-.06.05-.12.08-.19.08h-1.79s-.3,0-.3,0c-.1,0-.18.03-.25.1-.07.07-.1.15-.1.25s.03.18.1.25c.07.07.15.1.25.1h2.07c.14,0,.27-.03.38-.08.12-.05.22-.12.32-.21.09-.09.16-.19.21-.31.05-.12.08-.24.08-.38,0-.12-.02-.23-.06-.33-.04-.11-.1-.2-.17-.28.07-.08.12-.18.17-.28.04-.1.06-.22.06-.34ZM21.86,14.68c-.09-.09-.19-.16-.31-.21-.12-.05-.25-.08-.39-.08h-1.73c-.07,0-.14-.03-.19-.08-.06-.05-.08-.12-.08-.19,0-.08.03-.14.08-.19.06-.05.12-.08.19-.08h2.14c.1,0,.18-.03.25-.1.07-.07.1-.15.1-.25s-.03-.18-.1-.25c-.07-.07-.15-.1-.25-.1h-2.13c-.14,0-.26.03-.38.08-.12.05-.22.12-.31.21-.09.09-.16.19-.21.31-.05.12-.08.24-.08.38s.03.26.08.38c.05.12.12.22.21.31.09.09.19.16.31.21.12.05.24.08.38.08h1.75c.07,0,.14.03.19.08.05.05.08.12.08.2,0,.07-.03.14-.08.19-.05.05-.12.08-.19.08h-2.15c-.1,0-.18.03-.25.1-.07.07-.1.15-.1.25s.03.18.1.25c.07.07.15.1.25.1h2.12c.14,0,.27-.02.39-.07.12-.05.22-.12.31-.21.09-.09.16-.19.21-.31.05-.12.08-.24.08-.38s-.03-.27-.08-.39c-.05-.12-.12-.22-.21-.31ZM47.7,15.74c-.07-.07-.15-.1-.25-.1h-2.08c-.07,0-.14-.03-.19-.08-.06-.05-.08-.12-.08-.19v-1.87c0-.1-.04-.18-.11-.25-.07-.07-.15-.1-.25-.1-.1,0-.18.03-.25.1-.07.07-.1.15-.1.25v1.87c0,.14.03.26.08.38.05.12.13.22.22.31.09.09.2.16.32.21.12.05.25.08.39.08h2.05c.1,0,.18-.03.25-.1.07-.07.1-.15.1-.25s-.03-.18-.1-.25ZM26.05,13.5c0-.1-.03-.18-.1-.25-.07-.07-.15-.1-.25-.1h-1.88c-.21,0-.4.05-.56.15-.17.1-.31.22-.43.38-.12.15-.21.33-.27.51-.06.19-.09.38-.09.56s.03.37.09.56c.06.19.14.36.25.52.11.15.24.28.4.38.16.1.34.15.54.15h1.95c.1,0,.18-.03.25-.1.07-.07.1-.15.1-.25s-.03-.18-.1-.25c-.07-.07-.15-.1-.25-.1h-1.72c-.17,0-.31-.03-.41-.09-.1-.06-.19-.14-.25-.22-.06-.09-.1-.18-.12-.29-.02-.11-.03-.2-.03-.29s.01-.18.03-.29c.02-.11.06-.2.12-.29.06-.09.14-.16.25-.22.11-.06.24-.09.41-.09h1.72c.1,0,.18-.03.25-.1.07-.07.1-.15.1-.25ZM43.35,14.39h-1.33c-.1,0-.18.03-.25.1-.07.07-.1.15-.1.25s.03.18.1.25c.07.07.15.1.25.1h1.33c.1,0,.18-.03.25-.1.07-.07.1-.15.1-.25s-.03-.18-.1-.25-.15-.1-.25-.1ZM44.01,13.5c0-.1-.03-.18-.1-.25-.07-.07-.15-.1-.25-.1h-1.88c-.21,0-.4.05-.56.15-.17.1-.31.22-.43.38-.12.15-.21.33-.27.51-.06.19-.09.38-.09.56s.03.37.09.56c.06.19.14.36.25.52.11.15.24.28.4.38.16.1.34.15.54.15h1.95c.1,0,.18-.03.25-.1.07-.07.1-.15.1-.25s-.03-.18-.1-.25c-.07-.07-.15-.1-.25-.1h-1.72c-.17,0-.31-.03-.41-.09-.11-.06-.19-.14-.25-.22-.06-.09-.1-.18-.12-.29-.02-.1-.03-.2-.03-.29s.01-.18.03-.29c.02-.11.06-.2.12-.29.06-.09.14-.16.25-.22.1-.06.24-.09.41-.09h1.72c.1,0,.18-.03.25-.1.07-.07.1-.15.1-.25ZM36,14.83h-.3c-.1,0-.18.03-.25.1-.07.07-.1.15-.1.25s.03.18.1.25c.07.07.15.1.25.1h.3c.1,0,.18-.03.25-.1.07-.07.1-.15.1-.25s-.03-.18-.1-.25c-.07-.07-.15-.1-.25-.1ZM40.04,13.15h-2.72c-.1,0-.18.03-.25.1-.07.07-.1.15-.1.25s.03.17.1.24c.06.07.14.11.23.11h1.04v2.14c0,.1.03.18.1.25.07.07.15.1.25.1s.18-.03.25-.1c.07-.07.1-.15.1-.25v-2.14h1.01c.1,0,.18-.03.25-.1.07-.07.1-.15.1-.25s-.03-.18-.1-.25c-.07-.07-.15-.1-.25-.1ZM36.68,13.75s-.03-.07-.04-.11c-.14-.29-.44-.5-.79-.5-.31,0-.58.16-.74.4,0,0,0,0,0,0-.01.02-.03.04-.04.07,0,0,0,0,0,0l-.05.1s0,0,0,0l-.93,2.12c-.08.18,0,.38.18.46.05.02.09.03.14.03.13,0,.26-.08.32-.21l.61-1.39.18-.42v-.02c.06-.12.18-.2.32-.2s.26.08.32.19v.02s.19.42.19.42l.61,1.39c.06.13.19.21.32.21.05,0,.09,0,.14-.03.18-.08.26-.28.18-.46l-.92-2.1Z" style="fill: #e20e18;"/>
          </g>
          <g>
            <g>
              <path d="M3.89,22.81l2.37,4.71h-1.14l-.51-1.02H1.65l-.51,1.02H0l2.38-4.71h1.52ZM4.18,25.65l-1.05-2.09-1.05,2.09h2.1Z" style="fill: #5c5a5a;"/>
              <path d="M10.58,25.17c0,.84.3,1.44,1.17,1.44h1.41c.98,0,1.21-.55,1.27-1.01h1.07c-.2,1.76-1.68,1.93-2.47,1.93h-1.02c-.85,0-2.49-.18-2.49-2.36s1.64-2.36,2.49-2.36h1.02c.79,0,2.26.17,2.47,1.93h-1.07c-.06-.46-.3-1-1.27-1h-1.41c-.87,0-1.17.6-1.17,1.43Z" style="fill: #5c5a5a;"/>
              <path d="M21.97,25.17c0,2.17-1.64,2.36-2.49,2.36h-1.02c-.85,0-2.49-.18-2.49-2.36s1.64-2.36,2.49-2.36h1.02c.85,0,2.49.19,2.49,2.36ZM20.92,25.17c0-.79-.23-1.43-1.35-1.43h-1.21c-1.11,0-1.34.65-1.34,1.43s.23,1.44,1.34,1.44h1.21c1.12,0,1.35-.65,1.35-1.44Z" style="fill: #5c5a5a;"/>
              <path d="M27.58,22.81h.98v4.71h-1.45l-3.56-3.62v3.62h-.98v-4.71h1.45l3.57,3.62v-3.62Z" style="fill: #5c5a5a;"/>
              <path d="M34.42,22.81v.9h-4.15v1.05h4.15v.84h-4.15v1.02h4.15v.9h-5.13v-4.71h5.13Z" style="fill: #5c5a5a;"/>
              <path d="M40.86,22.81l-2.33,2.36,2.33,2.36h-1.37l-1.68-1.79-1.68,1.79h-1.37l2.33-2.36-2.33-2.36h1.37l1.68,1.79,1.68-1.79h1.37Z" style="fill: #5c5a5a;"/>
              <path d="M44.69,22.81l2.37,4.71h-1.14l-.51-1.02h-2.96l-.51,1.02h-1.14l2.38-4.71h1.52ZM45.71,21.36v.74s-.28.41-.92.41c-.74,0-1.1-.51-1.74-.51s-.91.51-.91.51v-.81s.25-.45.91-.45c.79,0,1.1.51,1.8.51.56,0,.86-.41.86-.41ZM44.98,25.65l-1.05-2.09-1.05,2.09h2.1Z" style="fill: #5c5a5a;"/>
              <path d="M52.92,25.17c0,2.17-1.64,2.36-2.49,2.36h-1.02c-.85,0-2.49-.18-2.49-2.36s1.64-2.36,2.49-2.36h1.02c.85,0,2.49.19,2.49,2.36ZM51.87,25.17c0-.79-.23-1.43-1.35-1.43h-1.21c-1.11,0-1.34.65-1.34,1.43s.23,1.44,1.34,1.44h1.21c1.12,0,1.35-.65,1.35-1.44Z" style="fill: #5c5a5a;"/>
            </g>
            <g>
              <path d="M22.68,29.34l2.37,4.71h-1.14l-.51-1.02h-2.96l-.51,1.02h-1.14l2.38-4.71h1.52ZM22.97,32.17l-1.05-2.09-1.05,2.09h2.1Z" style="fill: #5c5a5a;"/>
              <path d="M34.28,31.45v2.6h-.63l-.14-.44c-.53.39-1.21.44-1.68.44h-1.02c-.85,0-2.49-.18-2.49-2.36s1.64-2.36,2.49-2.36h1.02c.77,0,2.19.16,2.45,1.8h-1.07c-.09-.43-.36-.88-1.25-.88h-1.41c-.86,0-1.17.6-1.17,1.43s.31,1.44,1.17,1.44h1.41c.94,0,1.35-.38,1.39-.94h-2.65v-.74h3.59Z" style="fill: #5c5a5a;"/>
              <path d="M40.13,29.34v.9h-4.15v1.05h4.15v.84h-4.15v1.02h4.15v.9h-5.13v-4.71h5.13Z" style="fill: #5c5a5a;"/>
              <path d="M45.87,29.34h.98v4.71h-1.45l-3.56-3.62v3.62h-.98v-4.71h1.45l3.57,3.62v-3.62Z" style="fill: #5c5a5a;"/>
              <path d="M47.45,29.34h4.75v.92h-1.9v3.79h-.98v-3.79h-1.86v-.92Z" style="fill: #5c5a5a;"/>
              <path d="M57.92,29.34v.9h-4.15v1.05h4.15v.84h-4.15v1.02h4.15v.9h-5.13v-4.71h5.13Z" style="fill: #5c5a5a;"/>
            </g>
            <g>
              <path d="M10.91,39.12c0,.81.22,1.41,1.12,1.41h1.64c.55,0,.93-.17,1.01-.56h-2.7v-1.18h4.86v3.52h-1.21l-.24-.55c-.71.48-1.61.55-2.21.55h-1.03c-1.15,0-3.37-.25-3.37-3.19s2.21-3.19,3.37-3.19h1.38c1.04,0,2.96.21,3.31,2.44h-2.17c-.1-.51-.43-.65-1.04-.65h-1.6c-.9,0-1.12.6-1.12,1.4Z" style="fill: #5c5a5a;"/>
              <path d="M22.64,35.93l3.38,6.37h-2.25l-.47-.94h-3.38l-.47.94h-2.25l3.39-6.37h2.05ZM22.45,39.68l-.84-1.67-.84,1.67h1.68Z" style="fill: #5c5a5a;"/>
              <path d="M32.28,40.54l1.94,1.77h-2.67l-1.68-1.61h-1.53v1.61h-2.05v-6.37h4.56c1.15,0,3.04.18,3.04,2.38,0,1.4-.77,1.98-1.62,2.22ZM28.34,38.91h2.3c.9,0,1.12-.1,1.12-.6s-.21-.6-1.12-.6h-2.3v1.2Z" style="fill: #5c5a5a;"/>
              <path d="M39.48,35.93l3.38,6.37h-2.25l-.47-.94h-3.38l-.47.94h-2.25l3.39-6.37h2.05ZM39.3,39.68l-.84-1.67-.84,1.67h1.68Z" style="fill: #5c5a5a;"/>
              <path d="M49.29,35.93h2.04v6.37h-2.85l-3.22-4.19v4.19h-2.04v-6.37h2.86l3.21,4.19v-4.19Z" style="fill: #5c5a5a;"/>
              <path d="M52.05,35.93h6.42v1.79h-2.21v4.59h-2.05v-4.59h-2.15v-1.79Z" style="fill: #5c5a5a;"/>
              <path d="M66.03,35.93v1.76h-4.89v.62h4.89v1.67h-4.89v.57h4.89v1.76h-6.94v-6.37h6.94Z" style="fill: #5c5a5a;"/>
              <path d="M68.93,41.45c0,.56-.45,1.01-1.01,1.01s-1-.45-1-1.01.45-1,1-1,1.01.45,1.01,1Z" style="fill: #5c5a5a;"/>
            </g>
          </g>
        </g>
      </g>
    </g>
  </g>
</svg>