<?xml version="1.0" encoding="UTF-8"?>
<svg id="Camada_2" data-name="Camada 2" xmlns="http://www.w3.org/2000/svg" viewBox="0 0 34.51 15.15">
  <g id="Camada_1-2" data-name="Camada 1">
    <g>
      <g>
        <path d="M13.75,7.56c-1.25.15-1.78-.81-1.89-.97-.25-.34.2-.97.62-.46.17.22.47.44,1.04.37.5-.06,1.56-1.39,1.41-1.87-1.14.11-1.65.45-2.24.58-.43.09-1-.37-1.12-.73-.21-.64,1.72-2.59,2.56-2.85.81-.25,1.01.2,1.42.61.37.37-.3.68-.58.5-.11-.06-.27-.06-.36-.14-.35.14-1.16.82-1.49,1.3.61-.13,1.36-.29,1.9-.23.43.06.96.32,1.05.61.32,1.01-.96,3.09-2.32,3.26Z" style="fill: #5c5a5a;"/>
        <path d="M18.64,6.76c-.72.23-1.83-.13-2.08-.71-.24-.56-.2-.8-.14-1.35.07-.67,1.03-2.15,1.82-2.34.79-.17,1.33.2,1.74.85.38.61.47,1.13.15,2.11-.23.7-.63,1.16-1.49,1.43ZM18.68,3.31c-.56.23-1.11,1.12-1.26,1.67-.11.4-.04,1.2.47,1.02,1.03-.37,1.73-1.51,1.32-2.48-.12-.28-.29-.3-.53-.2Z" style="fill: #5c5a5a;"/>
        <path d="M26.14,4.33c0,.71.26,1.06.05,1.18-.26.15-.91-.38-1-1.18-.03-.29-.11-.88.02-1.66-.43.32-1.02,1.7-1.13,2.86-.02.25.02.34-.1.42-.28.2-.93-.26-1.03-.76-.05-.26-.12-1.24-.02-1.95-.4.21-.96,1.54-1.04,2.33-.02.19-.06.44-.03.61.08.59-.97.13-1.08-.63-.11-.84-.18-2.09-.06-3.1.13-1.14,1.13.23,1.02.57-.07.24-.1.56-.09.94.47-1.32.91-2.1,1.15-2.26.39-.27,1.1.45,1.04.75-.06.28-.06.67-.04,1.06.3-1.05.68-1.85.88-2.07.24-.26.35-.47.9-.23.41.17.83.61.76.95-.18.78-.21,1.71-.2,2.16Z" style="fill: #5c5a5a;"/>
        <path d="M28.97,5.23c-.72.23-1.83-.13-2.08-.71-.24-.56-.2-.8-.14-1.35.07-.67,1.03-2.15,1.82-2.34.79-.17,1.33.2,1.74.85.38.61.47,1.13.15,2.11-.23.7-.63,1.16-1.49,1.43ZM29.01,1.78c-.56.23-1.11,1.12-1.26,1.67-.11.4-.04,1.2.47,1.02,1.03-.37,1.73-1.51,1.32-2.48-.12-.28-.29-.3-.53-.2Z" style="fill: #5c5a5a;"/>
        <path d="M34.06,3.88c-.2.21-.89.92-1.27,1.01-.96.22-1.26-.53-1.77-.92-.11-.09-.31-.43-.1-.6.1-.08-.02-.18.43.16.4.32.7.42,1.27.17.22-.1,1.12-.87.91-1.05-.13-.12-1.23.11-1.66.3-.22.1-.95-.45-.92-.8.02-.36.23-.85.44-1.13.47-.65.77-.91,1.19-1.01.51-.12.89.55,1.21.95.03.04.12.26.05.31-.29.2-.66-.28-.98-.21-.17.04-.8.56-.74.7.77,0,1.59-.28,2.06.31.27.35.32,1.38-.1,1.82Z" style="fill: #5c5a5a;"/>
        <path d="M14.57,14.32c-.95.23-2.47-.21-2.73-1.27-.43-1.71.38-3.25,1.41-4.56,1.33-1.7,2.2-.91,2.93.07.38.51-.23.8-.76.49-.41-.24-.56-.29-1.12.41-.82,1.01-1.52,2.29-1.19,3.63.08.29.53.27.76.22.92-.22,1.8-1.23,2.31-2.12-.76.18-.85.31-1.47.49-.75.23-1.53-.55-.82-.87.73-.33,1.9-.83,2.73-1.08.37-.11,1.32.36,1.13,1.02-.45,1.53-1.73,3.22-3.2,3.57Z" style="fill: #5c5a5a;"/>
        <path d="M19.63,11.64c.02.55.05,1.11.09,1.72.06.85-1.3.14-1.37-.71-.14-1.79-.02-2.99.11-4.42-.41-.33-.59-1.07-.03-1.19.34-.08.61-.14.89-.16.91-.07,2.46-.36,3.42.91.98,1.29-1.79,3.33-3.13,3.85ZM19.77,8.21c-.16.65-.12,1.25-.17,1.88.91-.48,2.04-1.3,2.08-2.03-.46-.11-1.47.08-1.91.14Z" style="fill: #5c5a5a;"/>
        <path d="M26.68,7.36c-.28,1.04-.43,2.88-.39,3.94,0,.36.04.68.11.97.22.8-1.18.36-1.29-.48-.13-.98-.1-3.07-.02-4.03-.38.09-.59.16-.91.34-.65.36-1.76-.63-1.11-.99.51-.28,1.37-.62,1.87-.74.71-.16,1.81-.53,2.5-.63.79-.11,1.73,1.15.95,1.25-.35.04-1.06.21-1.72.37Z" style="fill: #5c5a5a;"/>
        <path d="M33.52,11.22c.02.74-1.3.18-1.53-.33-.36-.84-.31-1.18-.64-2.04-.27.77-.65,1.94-.71,2.8-.04.66-1.27-.04-1.45-.51-.58-1.54-.6-3.83-.46-5.2.08-.75,1.37.01,1.23.77-.08.4-.09,1.77.04,2.61.27-.95.64-2.35.86-2.83.27-.56,1.27.01,1.29.61,0,.3.17,1.61.29,1.97.19-1.38.61-3.17.92-4.16.23-.72,1.35.46,1.11,1.17-.46,1.4-1.01,3.6-.96,5.13Z" style="fill: #5c5a5a;"/>
      </g>
      <path d="M9.4,7.69l-.27,2.35c.47.04,1.55.21,1.69.74.13.53-1.52.89-1.9,1.04-.09.81-.15,2.07-.44,2.85-.44,1.2-1.25-.29-1.42-.7-.17-.39-.34-.82-.34-1.28v-.06c-.66.27-1.35.52-2.01.75.02.17.02.36.04.53.23,2.32-1.18.82-1.59-.09-.53-.03-1.42-.45-1.73-.86-.19-.26-.64-1.12-.13-1.36.42-.21.93-.33,1.38-.47-.02-.41,0-.83,0-1.25-1.86.5-3.28-1.71-2.45-2.12.72-.37,1.82-.55,2.58-.74.04-.67.13-3.74.97-3.86,1.06-.16,1.91,1.59,1.61,2.57-.08.26-.15.52-.21.79l1.65-.3c.06-.65.09-1.34.23-2.01.4-2.16,2.84.51,2.6,1.66l-.04.18c.42.05,1.29.23,1.4.7.13.49-1.29.84-1.63.94ZM4.83,9.22c-.04.46-.08.94-.09,1.4.64-.13,1.29-.27,1.93-.38,0-.55.02-1.08.04-1.64l-1.88.62Z" style="fill: #5c5a5a;"/>
    </g>
  </g>
</svg>