<?xml version="1.0" encoding="UTF-8"?>
<svg id="Camada_2" data-name="Camada 2" xmlns="http://www.w3.org/2000/svg" viewBox="0 0 68.93 21.21">
  <g id="Camada_1-2" data-name="Camada 1">
    <g>
      <g>
        <path d="M3.89,1.56l2.37,4.71h-1.14l-.51-1.02H1.65l-.51,1.02H0L2.38,1.56h1.52ZM4.18,4.4l-1.05-2.09-1.05,2.09h2.1Z" style="fill: #5c5a5a;"/>
        <path d="M10.58,3.91c0,.84.3,1.44,1.17,1.44h1.41c.98,0,1.21-.55,1.27-1.01h1.07c-.2,1.76-1.68,1.93-2.47,1.93h-1.02c-.85,0-2.49-.18-2.49-2.36s1.64-2.36,2.49-2.36h1.02c.79,0,2.26.17,2.47,1.93h-1.07c-.06-.46-.3-1-1.27-1h-1.41c-.87,0-1.17.6-1.17,1.43Z" style="fill: #5c5a5a;"/>
        <path d="M21.97,3.91c0,2.17-1.64,2.36-2.49,2.36h-1.02c-.85,0-2.49-.18-2.49-2.36s1.64-2.36,2.49-2.36h1.02c.85,0,2.49.19,2.49,2.36ZM20.92,3.91c0-.79-.23-1.43-1.35-1.43h-1.21c-1.11,0-1.34.65-1.34,1.43s.23,1.44,1.34,1.44h1.21c1.12,0,1.35-.65,1.35-1.44Z" style="fill: #5c5a5a;"/>
        <path d="M27.58,1.56h.98v4.71h-1.45l-3.56-3.62v3.62h-.98V1.56h1.45l3.57,3.62V1.56Z" style="fill: #5c5a5a;"/>
        <path d="M34.42,1.56v.9h-4.15v1.05h4.15v.84h-4.15v1.02h4.15v.9h-5.13V1.56h5.13Z" style="fill: #5c5a5a;"/>
        <path d="M40.86,1.56l-2.33,2.36,2.33,2.36h-1.37l-1.68-1.79-1.68,1.79h-1.37l2.33-2.36-2.33-2.36h1.37l1.68,1.79,1.68-1.79h1.37Z" style="fill: #5c5a5a;"/>
        <path d="M44.69,1.56l2.37,4.71h-1.14l-.51-1.02h-2.96l-.51,1.02h-1.14l2.38-4.71h1.52ZM45.71.11v.74s-.28.41-.92.41c-.74,0-1.1-.51-1.74-.51s-.91.51-.91.51V.45s.25-.45.91-.45c.79,0,1.1.51,1.8.51.56,0,.86-.41.86-.41ZM44.98,4.4l-1.05-2.09-1.05,2.09h2.1Z" style="fill: #5c5a5a;"/>
        <path d="M52.92,3.91c0,2.17-1.64,2.36-2.49,2.36h-1.02c-.85,0-2.49-.18-2.49-2.36s1.64-2.36,2.49-2.36h1.02c.85,0,2.49.19,2.49,2.36ZM51.87,3.91c0-.79-.23-1.43-1.35-1.43h-1.21c-1.11,0-1.34.65-1.34,1.43s.23,1.44,1.34,1.44h1.21c1.12,0,1.35-.65,1.35-1.44Z" style="fill: #5c5a5a;"/>
      </g>
      <g>
        <path d="M22.68,8.08l2.37,4.71h-1.14l-.51-1.02h-2.96l-.51,1.02h-1.14l2.38-4.71h1.52ZM22.97,10.92l-1.05-2.09-1.05,2.09h2.1Z" style="fill: #5c5a5a;"/>
        <path d="M34.28,10.2v2.6h-.63l-.14-.44c-.53.39-1.21.44-1.68.44h-1.02c-.85,0-2.49-.18-2.49-2.36s1.64-2.36,2.49-2.36h1.02c.77,0,2.19.16,2.45,1.8h-1.07c-.09-.43-.36-.88-1.25-.88h-1.41c-.86,0-1.17.6-1.17,1.43s.31,1.44,1.17,1.44h1.41c.94,0,1.35-.38,1.39-.94h-2.65v-.74h3.59Z" style="fill: #5c5a5a;"/>
        <path d="M40.13,8.08v.9h-4.15v1.05h4.15v.84h-4.15v1.02h4.15v.9h-5.13v-4.71h5.13Z" style="fill: #5c5a5a;"/>
        <path d="M45.87,8.08h.98v4.71h-1.45l-3.56-3.62v3.62h-.98v-4.71h1.45l3.57,3.62v-3.62Z" style="fill: #5c5a5a;"/>
        <path d="M47.45,8.08h4.75v.92h-1.9v3.79h-.98v-3.79h-1.86v-.92Z" style="fill: #5c5a5a;"/>
        <path d="M57.92,8.08v.9h-4.15v1.05h4.15v.84h-4.15v1.02h4.15v.9h-5.13v-4.71h5.13Z" style="fill: #5c5a5a;"/>
      </g>
      <g>
        <path d="M10.91,17.86c0,.81.22,1.41,1.12,1.41h1.64c.55,0,.93-.17,1.01-.56h-2.7v-1.18h4.86v3.52h-1.21l-.24-.55c-.71.48-1.61.55-2.21.55h-1.03c-1.15,0-3.37-.25-3.37-3.19s2.21-3.19,3.37-3.19h1.38c1.04,0,2.96.21,3.31,2.44h-2.17c-.1-.51-.43-.65-1.04-.65h-1.6c-.9,0-1.12.6-1.12,1.4Z" style="fill: #5c5a5a;"/>
        <path d="M22.64,14.68l3.38,6.37h-2.25l-.47-.94h-3.38l-.47.94h-2.25l3.39-6.37h2.05ZM22.45,18.43l-.84-1.67-.84,1.67h1.68Z" style="fill: #5c5a5a;"/>
        <path d="M32.28,19.28l1.94,1.77h-2.67l-1.68-1.61h-1.53v1.61h-2.05v-6.37h4.56c1.15,0,3.04.18,3.04,2.38,0,1.4-.77,1.98-1.62,2.22ZM28.34,17.66h2.3c.9,0,1.12-.1,1.12-.6s-.21-.6-1.12-.6h-2.3v1.2Z" style="fill: #5c5a5a;"/>
        <path d="M39.48,14.68l3.38,6.37h-2.25l-.47-.94h-3.38l-.47.94h-2.25l3.39-6.37h2.05ZM39.3,18.43l-.84-1.67-.84,1.67h1.68Z" style="fill: #5c5a5a;"/>
        <path d="M49.29,14.68h2.04v6.37h-2.85l-3.22-4.19v4.19h-2.04v-6.37h2.86l3.21,4.19v-4.19Z" style="fill: #5c5a5a;"/>
        <path d="M52.05,14.68h6.42v1.79h-2.21v4.59h-2.05v-4.59h-2.15v-1.79Z" style="fill: #5c5a5a;"/>
        <path d="M66.03,14.68v1.76h-4.89v.62h4.89v1.67h-4.89v.57h4.89v1.76h-6.94v-6.37h6.94Z" style="fill: #5c5a5a;"/>
        <path d="M68.93,20.2c0,.56-.45,1.01-1.01,1.01s-1-.45-1-1.01.45-1,1-1,1.01.45,1.01,1Z" style="fill: #5c5a5a;"/>
      </g>
    </g>
  </g>
</svg>