<?xml version="1.0" encoding="UTF-8"?>
<svg id="Camada_2" data-name="Camada 2" xmlns="http://www.w3.org/2000/svg" viewBox="0 0 54.45 27.61">
  <g id="Camada_1-2" data-name="Camada 1">
    <g>
      <g>
        <polygon id="Path" points="0 0 0 23.24 8.11 27.61 16.21 23.24 16.21 0 0 0" style="fill: #223768;"/>
        <rect id="Rectangle" width="16.21" height="16.21" style="fill: #e83a42;"/>
        <g>
          <path id="Path3" d="M4.03,2.5v.22c0,.41-.13.74-.39.99s-.6.38-1.01.38-.8-.14-1.1-.43c-.29-.29-.43-.64-.43-1.05s.14-.76.43-1.05c.29-.29.64-.43,1.07-.43s1,.26,1.24.66l-.48.28c-.13-.23-.43-.4-.76-.4s-.5.09-.67.27c-.17.17-.26.4-.26.67s.09.49.26.67c.18.17.42.26.71.26.44,0,.73-.2.83-.54h-.86v-.5h1.42,0Z" style="fill: #fff;"/>
          <path id="Path4" d="M4.87,2.34c.09-.26.33-.39.59-.39v.59c-.15-.02-.29.01-.41.1-.12.08-.18.22-.18.42v.97h-.5V1.99h.5v.35h0Z" style="fill: #fff;"/>
          <path id="Shape4" d="M6.3,3.23c.07.26.26.38.57.38s.35-.07.46-.2l.42.24c-.2.29-.5.44-.89.44s-.6-.1-.81-.31-.31-.46-.31-.77.1-.56.3-.76c.2-.21.46-.31.77-.31s.54.1.74.31c.19.21.29.46.29.76s0,.15-.02.22h-1.53ZM7.33,2.82c-.06-.28-.26-.41-.51-.41s-.47.15-.53.41h1.04,0Z" style="fill: #fff;"/>
          <path id="Shape5" d="M9.75,1.99h.52v2.03h-.52v-.24c-.16.2-.38.3-.66.3s-.5-.1-.7-.31c-.19-.21-.29-.46-.29-.76s.1-.55.29-.76c.19-.21.43-.31.7-.31s.5.1.66.3v-.24h0ZM9.18,3.58c.16,0,.3-.05.4-.16.11-.11.16-.25.16-.42s-.05-.31-.16-.41c-.1-.11-.24-.16-.4-.16s-.3.05-.4.16c-.1.1-.16.24-.16.41s.05.31.16.42c.1.11.24.16.4.16" style="fill: #fff;"/>
          <path id="Path5" d="M11.99,2.5h-.46v.85c0,.22.16.22.46.21v.48c-.72.08-.98-.12-.98-.68v-.85h-.35v-.51h.35v-.41l.53-.16v.57h.46v.51h0Z" style="fill: #fff;"/>
          <path id="Shape6" d="M2.55,4.75c.27,0,.51.09.69.28s.28.41.28.68-.09.5-.28.68-.42.28-.69.28h-.5v.94h-.56v-2.84h1.06ZM2.55,6.14c.24,0,.42-.19.42-.43s-.17-.43-.42-.43h-.5v.86h.5Z" style="fill: #fff;"/>
          <rect id="Rectangle1" x="3.9" y="4.78" width=".53" height="2.82" style="fill: #fff;"/>
          <path id="Shape7" d="M6.53,5.57h.52v2.03h-.52v-.24c-.16.2-.38.3-.66.3s-.5-.1-.7-.31c-.19-.21-.29-.46-.29-.76s.1-.55.29-.76c.19-.21.43-.31.7-.31s.51.1.66.3v-.24h0ZM5.97,7.16c.16,0,.3-.05.4-.16.11-.11.16-.25.16-.42s-.05-.31-.16-.41c-.1-.11-.24-.16-.4-.16s-.3.05-.4.16c-.1.1-.16.24-.16.41s.05.31.16.42c.1.11.24.16.4.16" style="fill: #fff;"/>
          <path id="Path6" d="M7.81,7.35c-.2-.21-.31-.46-.31-.76s.1-.56.31-.76c.21-.21.46-.31.77-.31s.74.2.91.53l-.45.26c-.08-.17-.26-.27-.46-.27-.31,0-.54.23-.54.56,0,.15.05.29.15.4.1.1.23.15.39.15s.39-.1.47-.27l.46.26c-.18.32-.52.53-.92.53-.3,0-.56-.11-.77-.31" style="fill: #fff;"/>
          <path id="Shape8" d="M10.34,6.8c.07.26.26.38.57.38s.35-.07.46-.2l.42.24c-.2.29-.5.44-.89.44s-.6-.1-.81-.31-.31-.46-.31-.77.1-.56.3-.76c.2-.21.46-.31.77-.31s.54.1.74.31c.19.21.29.46.29.76s0,.15-.02.22h-1.53ZM11.36,6.39c-.06-.28-.26-.41-.5-.41s-.47.15-.53.41h1.03Z" style="fill: #fff;"/>
          <polygon id="Path7" points="3.2 8.47 3.2 8.98 2.43 8.98 2.43 11.17 1.87 11.17 1.87 8.98 1.11 8.98 1.11 8.47 3.2 8.47" style="fill: #fff;"/>
          <path id="Shape9" d="M4.08,11.23c-.3,0-.56-.1-.76-.31-.21-.21-.31-.46-.31-.76s.1-.55.31-.76c.21-.21.46-.31.76-.31s.56.1.76.31c.21.2.32.47.31.76,0,.3-.1.56-.31.76-.21.21-.46.31-.76.31M4.08,10.72c.15,0,.29-.05.4-.16.1-.1.16-.24.16-.4s-.05-.3-.16-.4c-.22-.21-.57-.21-.79,0-.1.1-.15.24-.15.4s.05.3.15.4c.1.11.25.17.39.16" style="fill: #fff;"/>
          <polygon id="Path8" points="1.98 14.91 1.19 12.07 1.78 12.07 2.32 14.18 2.91 12.07 3.39 12.07 3.99 14.18 4.54 12.07 5.13 12.07 4.33 14.91 3.69 14.91 3.16 13.04 2.62 14.91 1.98 14.91" style="fill: #fff;"/>
          <path id="Shape10" d="M6.15,14.97c-.3,0-.56-.1-.76-.31-.21-.21-.31-.46-.31-.76s.1-.55.31-.76c.21-.21.46-.31.76-.31s.56.1.76.31c.21.21.31.46.31.76s-.1.56-.31.76-.46.31-.76.31M6.15,14.46c.15,0,.29-.05.4-.16.1-.1.16-.24.16-.4s-.05-.3-.16-.4c-.22-.21-.57-.21-.79,0-.1.1-.15.24-.15.4s.05.3.15.4.24.17.39.16" style="fill: #fff;"/>
          <path id="Path9" d="M8.12,13.23c.1-.26.34-.39.62-.39v.58c-.15-.02-.31.01-.43.1-.12.08-.19.22-.19.42v.97h-.52v-2.03h.52v.35h0Z" style="fill: #fff;"/>
          <polygon id="Path10" points="11 14.91 10.39 14.91 9.65 13.99 9.65 14.91 9.13 14.91 9.13 12.07 9.65 12.07 9.65 13.78 10.35 12.88 10.98 12.88 10.16 13.89 11 14.91" style="fill: #fff;"/>
          <path id="Shape11" d="M11.19,14.55c0-.19.11-.35.28-.43s.37-.03.5.1.17.33.1.5c-.07.17-.24.28-.42.28-.12,0-.24-.05-.33-.13s-.14-.2-.14-.33M12.03,14.55c0-.23-.16-.38-.38-.38s-.38.16-.38.39.17.38.38.38.38-.16.38-.38M11.49,14.32h.16c.1,0,.17.04.17.14h0c0,.06-.04.11-.09.12l.12.19h-.1l-.11-.18h-.05v.18h-.1v-.45ZM11.65,14.53c.05,0,.08-.02.08-.07h0s-.03-.07-.08-.07h-.06v.13h.06Z" style="fill: #fff;"/>
          <path id="Shape17" d="M15.39,24.62h-.16v.36h-.15v-.36h-.16v-.14h.47v.14h0ZM16.05,24.97h-.15v-.21l-.11.2h-.07l-.11-.2v.21h-.15v-.5h.13l.17.3.17-.3h.13v.5h0Z" style="fill: #223768;"/>
        </g>
        <g>
          <path d="M12.31,19.67c-.24-.01-.43-.16-.52-.36s-.09-.47.02-.67c.13-.21.35-.34.59-.31.14.01.26.06.36.18v-.66s.33,0,.33,0v1.79s-.33,0-.33,0v-.14c-.13.12-.26.18-.45.17ZM12.77,19c0-.2-.16-.36-.36-.36s-.36.16-.36.36.16.36.36.36.36-.16.36-.36Z" style="fill: #fff;"/>
          <path d="M2.47,19.33c.21.01.41-.07.52-.25l.31.18c-.18.29-.49.44-.82.42-.52-.01-.89-.42-.89-.93s.36-.91.87-.93c.33-.02.65.12.83.42l-.31.18c-.09-.16-.24-.24-.42-.26-.36-.03-.63.23-.63.59,0,.31.2.56.53.58Z" style="fill: #fff;"/>
          <path d="M11.55,19.64h-.33s0-.13,0-.13c-.26.25-.66.22-.89-.07-.19-.25-.2-.61,0-.87.21-.29.66-.34.89-.07v-.14s.34,0,.34,0v1.28ZM11.23,19c0-.2-.16-.36-.36-.36s-.36.16-.36.36.16.36.36.36.36-.16.36-.36Z" style="fill: #fff;"/>
          <path d="M14.3,19.64v-.14c-.22.25-.63.23-.85,0-.25-.27-.26-.67-.03-.95.21-.26.63-.3.87-.03v-.14s.33,0,.33,0v1.28s-.33,0-.33,0ZM14.31,19c0-.2-.16-.36-.36-.36s-.36.16-.36.36.16.36.36.36.36-.16.36-.36Z" style="fill: #fff;"/>
          <path d="M4.05,19.37c.13,0,.24-.03.3-.13l.27.16c-.14.2-.37.28-.59.28-.4,0-.69-.32-.67-.72s.34-.67.73-.63.65.4.58.81h-.96c.04.16.18.24.34.24ZM4.35,18.87c-.06-.22-.24-.29-.42-.24-.1.03-.2.12-.23.24h.65Z" style="fill: #fff;"/>
          <path d="M9.28,19.26c.15.14.43.11.53-.08l.29.17c-.21.36-.68.44-1.01.18-.26-.21-.32-.58-.16-.87.1-.18.27-.29.46-.32.28-.05.56.07.7.32l-.29.16c-.08-.14-.23-.19-.38-.16s-.24.15-.25.31c0,.11.03.22.11.29Z" style="fill: #fff;"/>
          <path d="M7.88,19.64h-.33s0-.96,0-.96h-.18s0-.32,0-.32h.19c0-.16.03-.33.16-.43s.28-.12.44-.12v.32c-.08,0-.15,0-.2.05-.04.04-.06.1-.07.18h.27s0,.32,0,.32h-.27s0,.96,0,.96Z" style="fill: #fff;"/>
          <path d="M6.62,19.64c-.16.02-.34.03-.48-.06-.1-.06-.14-.2-.14-.32v-.58s-.22,0-.22,0v-.32s.22,0,.22,0v-.26s.34-.1.34-.1v.36s.29,0,.29,0v.32s-.29,0-.29,0v.55c0,.06.05.11.11.11h.18s0,.3,0,.3Z" style="fill: #fff;"/>
          <path d="M5.18,19.64h-.33s0-1.28,0-1.28h.33s0,.22,0,.22c.06-.16.22-.25.38-.24v.37c-.2-.03-.38.1-.39.3v.64Z" style="fill: #fff;"/>
          <path d="M7.15,24.36c-.03.09-.1.17-.2.17h-.57s0-.93,0-.93h.51c.1,0,.2.09.22.16.04.12-.02.22-.11.28.14.05.19.18.15.32ZM6.84,23.97c.07,0,.1-.07.1-.12,0-.04-.05-.09-.1-.09h-.26s0,.22,0,.22h.27ZM6.86,24.38c.07,0,.11-.06.11-.12,0-.05-.03-.12-.09-.12l-.31-.02v.26s.29,0,.29,0Z" style="fill: #fff;"/>
          <polygon points="10.85 22.25 10.66 22.25 10.28 21.64 10.27 22.25 10.1 22.25 10.1 21.31 10.29 21.31 10.67 21.92 10.67 21.31 10.85 21.31 10.85 22.25" style="fill: #fff;"/>
          <polygon points="4.49 22.25 4.3 22.25 3.93 21.65 3.93 22.25 3.75 22.25 3.75 21.31 3.93 21.31 4.31 21.93 4.32 21.31 4.49 21.31 4.49 22.25" style="fill: #fff;"/>
          <rect x="6.85" y="18.35" width=".33" height="1.29" style="fill: #fff;"/>
          <rect x="7.83" y="18.83" width="1.29" height=".33" transform="translate(-10.55 27.41) rotate(-89.84)" style="fill: #fff;"/>
          <path d="M3.35,21.31h.19s0,.64,0,.64c0,.12-.06.24-.17.29-.13.05-.27.04-.4,0-.12-.04-.18-.16-.18-.28v-.64s.19,0,.19,0v.61c0,.11.06.18.17.19.04,0,.1-.01.14-.03.04-.03.06-.09.06-.14v-.62Z" style="fill: #fff;"/>
          <path d="M9.71,21.31h.19s0,.68,0,.68c0,.13-.1.23-.22.26-.09.02-.18.02-.27,0-.15-.02-.25-.14-.25-.29v-.65s.19,0,.19,0v.64c0,.09.06.13.14.15s.22-.02.22-.12v-.67Z" style="fill: #fff;"/>
          <path d="M7.41,21.71c.07-.07.15-.09.25-.05.13.05.19.17.19.31s-.08.26-.21.29c-.18.04-.34-.04-.39-.22-.04-.17-.04-.35.01-.52.05-.14.17-.21.31-.21s.25.1.25.24h-.17s-.04-.08-.07-.09c-.05-.02-.1,0-.13.04-.03.06-.05.12-.05.21ZM7.65,21.85s-.06-.08-.11-.08c-.04,0-.09.03-.1.06-.03.07-.03.15,0,.22.02.04.09.07.13.06.08-.01.12-.14.08-.26Z" style="fill: #fff;"/>
          <path d="M6.31,22.1c-.05.13-.18.17-.29.16-.28-.04-.3-.46-.23-.74.03-.12.12-.21.25-.22s.24.04.29.17c.07.2.07.42,0,.63ZM6.15,22.03c.04-.22.05-.58-.1-.58-.03,0-.08.04-.09.08-.04.21-.05.58.09.58.04,0,.09-.03.1-.09Z" style="fill: #fff;"/>
          <path d="M12.58,22.21c-.09.07-.2.07-.3.02-.07-.03-.14-.12-.16-.22-.05-.29-.04-.68.25-.71.15-.01.26.06.3.2.06.21.06.58-.1.7ZM12.51,21.54s-.06-.09-.1-.09c-.03,0-.09.04-.09.08-.03.18-.03.34,0,.52,0,.04.07.07.1.07.13-.01.12-.38.08-.57Z" style="fill: #fff;"/>
          <path d="M7.09,22.25h-.64c.02-.1.05-.19.12-.26l.26-.27s.06-.09.07-.14c0-.08-.06-.13-.12-.13-.08,0-.13.05-.13.15l-.18-.02c0-.18.15-.29.32-.28.09,0,.18.03.24.1.05.06.07.17.04.26-.03.11-.12.19-.2.27l-.14.15h.36s0,.17,0,.17Z" style="fill: #fff;"/>
          <path d="M5.63,22.25h-.63c.01-.13.09-.23.18-.33l.23-.23s.05-.14.02-.19-.1-.06-.15-.05c-.05.02-.07.07-.08.14l-.17-.02c0-.18.13-.28.3-.28.12,0,.24.04.29.16.04.11,0,.25-.08.34l-.26.27h.36s0,.17,0,.17Z" style="fill: #fff;"/>
          <path d="M13.45,22.25h-.63c.02-.11.07-.22.15-.3l.23-.23c.06-.05.09-.13.05-.21-.02-.05-.1-.07-.15-.05s-.08.07-.09.14l-.18-.02c.01-.18.13-.28.3-.28.12,0,.25.04.29.17.04.14-.02.28-.12.38l-.23.23h.36s0,.17,0,.17Z" style="fill: #fff;"/>
          <path d="M11.99,22.25h-.63c0-.09.04-.18.1-.24l.24-.24s.09-.1.11-.16c.02-.09-.04-.16-.11-.16-.08,0-.13.05-.13.15l-.18-.02c.04-.21.12-.27.32-.27.17,0,.31.12.29.29,0,.09-.06.18-.12.24l-.24.24h.36s0,.17,0,.17Z" style="fill: #fff;"/>
          <path d="M8.22,24.47c-.1.09-.23.11-.34.05-.08-.04-.11-.13-.1-.21.01-.07.07-.13.16-.15l.24-.06s.02-.06.01-.07c-.01-.01-.04-.04-.06-.04-.08-.02-.14,0-.17.08l-.16-.03c.02-.1.1-.17.21-.19h.2c.07,0,.17.05.17.13v.3c0,.09.02.17.05.26h-.17s-.03-.07-.03-.07ZM8.01,24.41c.06.04.12,0,.15-.02.05-.05.06-.12.03-.18l-.18.04s-.05.05-.06.07.02.06.05.08Z" style="fill: #fff;"/>
          <path d="M9.05,24.49c-.16.11-.49.08-.55-.15l.18-.03.03.07c.06.04.15.05.21.01.01,0,.03-.04.03-.06s-.03-.04-.05-.04l-.27-.08c-.09-.03-.12-.12-.11-.2.01-.18.29-.23.47-.15.06.03.1.09.12.15l-.17.03-.04-.06s-.15-.02-.2,0c-.01,0-.01.06,0,.06l.06.02c.1.03.22.04.31.11.11.07.08.23-.03.31Z" style="fill: #fff;"/>
          <path d="M8.45,22.21c-.09-.06-.1-.17-.1-.25l.18-.02c0,.05.01.11.04.14.04.03.09.03.12.02.04-.02.06-.07.06-.11v-.67s.19,0,.19,0v.68c0,.07-.04.16-.09.21-.11.09-.28.1-.41.01Z" style="fill: #fff;"/>
          <path d="M2.09,22.21c-.09-.06-.1-.17-.1-.25l.18-.02c-.01.09.03.16.1.17.07,0,.13-.05.13-.13v-.66s.19,0,.19,0v.65c0,.1-.04.21-.13.26-.11.07-.27.07-.38,0Z" style="fill: #fff;"/>
          <path d="M13.87,22.25h-.17c.02-.29.11-.53.28-.76h-.4s0-.17,0-.17h.61s0,.13,0,.13c-.2.22-.3.5-.32.8Z" style="fill: #fff;"/>
          <path d="M7.49,24.54h-.18s0-.69,0-.69h.17s0,.08,0,.08c.04-.05.07-.08.13-.1.05-.01.12.01.14.04l-.06.15s-.09-.04-.11-.03-.08.06-.08.09v.44Z" style="fill: #fff;"/>
          <rect x="9.28" y="23.98" width=".95" height=".18" transform="translate(-14.32 33.82) rotate(-89.99)" style="fill: #fff;"/>
          <path d="M7,17.79c.11,0,.21.09.22.18.01.12-.08.21-.18.23-.12.01-.21-.07-.23-.17s.06-.22.19-.23Z" style="fill: #fff;"/>
          <path d="M8.46,17.79c.12,0,.21.1.21.19,0,.12-.08.21-.19.22-.12,0-.21-.08-.22-.19s.07-.21.19-.22Z" style="fill: #fff;"/>
          <rect x="9.04" y="24.11" width=".69" height=".18" transform="translate(-14.82 33.57) rotate(-89.97)" style="fill: #fff;"/>
          <rect x="7.96" y="21.82" width=".35" height=".18" transform="translate(-.04 .02) rotate(-.11)" style="fill: #fff;"/>
          <rect x="9.3" y="23.6" width=".18" height=".17" transform="translate(-.1 .04) rotate(-.25)" style="fill: #fff;"/>
        </g>
      </g>
      <g>
        <g>
          <path d="M33.68,10.7c-1.25.15-1.78-.81-1.89-.97-.25-.34.2-.97.62-.46.17.22.47.44,1.04.37.5-.06,1.56-1.39,1.41-1.87-1.14.11-1.65.45-2.24.58-.43.09-1-.37-1.12-.73-.21-.64,1.72-2.59,2.56-2.85.81-.25,1.01.2,1.42.61.37.37-.3.68-.58.5-.11-.06-.27-.06-.36-.14-.35.14-1.16.82-1.49,1.3.61-.13,1.36-.29,1.9-.23.43.06.96.32,1.05.61.32,1.01-.96,3.09-2.32,3.26Z" style="fill: #5c5a5a;"/>
          <path d="M38.58,9.9c-.72.23-1.83-.13-2.08-.71-.24-.56-.2-.8-.14-1.35.07-.67,1.03-2.15,1.82-2.34.79-.17,1.33.2,1.74.85.38.61.47,1.13.15,2.11-.23.7-.63,1.16-1.49,1.43ZM38.62,6.46c-.56.23-1.11,1.12-1.26,1.67-.11.4-.04,1.2.47,1.02,1.03-.37,1.73-1.51,1.32-2.48-.12-.28-.29-.3-.53-.2Z" style="fill: #5c5a5a;"/>
          <path d="M46.08,7.47c0,.71.26,1.06.05,1.18-.26.15-.91-.38-1-1.18-.03-.29-.11-.88.02-1.66-.43.32-1.02,1.7-1.13,2.86-.02.25.02.34-.1.42-.28.2-.93-.26-1.03-.76-.05-.26-.12-1.24-.02-1.95-.4.21-.96,1.54-1.04,2.33-.02.19-.06.44-.03.61.08.59-.97.13-1.08-.63-.11-.84-.18-2.09-.06-3.1.13-1.14,1.13.23,1.02.57-.07.24-.1.56-.09.94.47-1.32.91-2.1,1.15-2.26.39-.27,1.1.45,1.04.75-.06.28-.06.67-.04,1.06.3-1.05.68-1.85.88-2.07.24-.26.35-.47.9-.23.41.17.83.61.76.95-.18.78-.21,1.71-.2,2.16Z" style="fill: #5c5a5a;"/>
          <path d="M48.9,8.37c-.72.23-1.83-.13-2.08-.71-.24-.56-.2-.8-.14-1.35.07-.67,1.03-2.15,1.82-2.34.79-.17,1.33.2,1.74.85.38.61.47,1.13.15,2.11-.23.7-.63,1.16-1.49,1.43ZM48.94,4.92c-.56.23-1.11,1.12-1.26,1.67-.11.4-.04,1.2.47,1.02,1.03-.37,1.73-1.51,1.32-2.48-.12-.28-.29-.3-.53-.2Z" style="fill: #5c5a5a;"/>
          <path d="M54,7.03c-.2.21-.89.92-1.27,1.01-.96.22-1.26-.53-1.77-.92-.11-.09-.31-.43-.1-.6.1-.08-.02-.18.43.16.4.32.7.42,1.27.17.22-.1,1.12-.87.91-1.05-.13-.12-1.23.11-1.66.3-.22.1-.95-.45-.92-.8.02-.36.23-.85.44-1.13.47-.65.77-.91,1.19-1.01.51-.12.89.55,1.21.95.03.04.12.26.05.31-.29.2-.66-.28-.98-.21-.17.04-.8.56-.74.7.77,0,1.59-.28,2.06.31.27.35.32,1.38-.1,1.82Z" style="fill: #5c5a5a;"/>
          <path d="M34.5,17.46c-.95.23-2.47-.21-2.73-1.27-.43-1.71.38-3.25,1.41-4.56,1.33-1.7,2.2-.91,2.93.07.38.51-.23.8-.76.49-.41-.24-.56-.29-1.12.41-.82,1.01-1.52,2.29-1.19,3.63.08.29.53.27.76.22.92-.22,1.8-1.23,2.31-2.12-.76.18-.85.31-1.47.49-.75.23-1.53-.55-.82-.87.73-.33,1.9-.83,2.73-1.08.37-.11,1.32.36,1.13,1.02-.45,1.53-1.73,3.22-3.2,3.57Z" style="fill: #5c5a5a;"/>
          <path d="M39.57,14.78c.02.55.05,1.11.09,1.72.06.85-1.3.14-1.37-.71-.14-1.79-.02-2.99.11-4.42-.41-.33-.59-1.07-.03-1.19.34-.08.61-.14.89-.16.91-.07,2.46-.36,3.42.91.98,1.29-1.79,3.33-3.13,3.85ZM39.71,11.36c-.16.65-.12,1.25-.17,1.88.91-.48,2.04-1.3,2.08-2.03-.46-.11-1.47.08-1.91.14Z" style="fill: #5c5a5a;"/>
          <path d="M46.62,10.5c-.28,1.04-.43,2.88-.39,3.94,0,.36.04.68.11.97.22.8-1.18.36-1.29-.48-.13-.98-.1-3.07-.02-4.03-.38.09-.59.16-.91.34-.65.36-1.76-.63-1.11-.99.51-.28,1.37-.62,1.87-.74.71-.16,1.81-.53,2.5-.63.79-.11,1.73,1.15.95,1.25-.35.04-1.06.21-1.72.37Z" style="fill: #5c5a5a;"/>
          <path d="M53.46,14.36c.02.74-1.3.18-1.53-.33-.36-.84-.31-1.18-.64-2.04-.27.77-.65,1.94-.71,2.8-.04.66-1.27-.04-1.45-.51-.58-1.54-.6-3.83-.46-5.2.08-.75,1.37.01,1.23.77-.08.4-.09,1.77.04,2.61.27-.95.64-2.35.86-2.83.27-.56,1.27.01,1.29.61,0,.3.17,1.61.29,1.97.19-1.38.61-3.17.92-4.16.23-.72,1.35.46,1.11,1.17-.46,1.4-1.01,3.6-.96,5.13Z" style="fill: #5c5a5a;"/>
        </g>
        <path d="M29.34,10.83l-.27,2.35c.47.04,1.55.21,1.69.74.13.53-1.52.89-1.9,1.04-.09.81-.15,2.07-.44,2.85-.44,1.2-1.25-.29-1.42-.7-.17-.39-.34-.82-.34-1.28v-.06c-.66.27-1.35.52-2.01.75.02.17.02.36.04.53.23,2.32-1.18.82-1.59-.09-.53-.03-1.42-.45-1.73-.86-.19-.26-.64-1.12-.13-1.36.42-.21.93-.33,1.38-.47-.02-.41,0-.83,0-1.25-1.86.5-3.28-1.71-2.45-2.12.72-.37,1.82-.55,2.58-.74.04-.67.13-3.74.97-3.86,1.06-.16,1.91,1.59,1.61,2.57-.08.26-.15.52-.21.79l1.65-.3c.06-.65.09-1.34.23-2.01.4-2.16,2.84.51,2.6,1.66l-.04.18c.42.05,1.29.23,1.4.7.13.49-1.29.84-1.63.94ZM24.77,12.37c-.04.46-.08.94-.09,1.4.64-.13,1.29-.27,1.93-.38,0-.55.02-1.08.04-1.64l-1.88.62Z" style="fill: #5c5a5a;"/>
      </g>
    </g>
  </g>
</svg>